<mxfile host="app.diagrams.net" modified="2023-11-08T04:11:50.350Z" agent="Mozilla/5.0 (Macintosh; Intel Mac OS X 10_15_7) AppleWebKit/537.36 (KHTML, like Gecko) Chrome/118.0.0.0 Safari/537.36" version="22.0.8" etag="1WvqF1q2Mya10WSC3Qh5" type="github">
  <diagram name="Page-1" id="RAb4Q7TLQ53wh8H6zAEE">
    <mxGraphModel>
      <root>
        <mxCell id="0" />
        <mxCell id="1" parent="0" />
      </root>
    </mxGraphModel>
  </diagram>
</mxfile>
